<svg enable-background="new 0 0 128 128" viewBox="0 0 128 128" xmlns="http://www.w3.org/2000/svg" xmlns:xlink="http://www.w3.org/1999/xlink"><radialGradient id="a" cx="40" cy="86" gradientTransform="matrix(-.1861 .9825 .7651 .1449 -18.3528 -9.7605)" gradientUnits="userSpaceOnUse" r="81.904"><stop offset="0" stop-color="#ffd740"/><stop offset=".1731" stop-color="#ffd435"/><stop offset=".4779" stop-color="#ffcb17"/><stop offset=".6802" stop-color="#ffc400"/><stop offset="1" stop-color="#ffab00"/></radialGradient><linearGradient id="b" gradientTransform="matrix(.9961 .0879 .0879 -.9961 -9.1313 118.2321)" gradientUnits="userSpaceOnUse" x1="110.6654" x2="114.6244" y1="110.3761" y2="95.413"><stop offset="0" stop-color="#999898"/><stop offset=".9954" stop-color="#504f4f"/></linearGradient><path d="m110.86 23.9s-1.17-2.34-3.53-3.7c-3.21-1.85-4.4-7.69-6.9-11-3.02-3.99-7.85-5.18-10.11-5.2-4.44-.04-7.56 1.47-10.67 6.64-.87 1.45-24.91 52.96-33.88 72.21-.31.67-.83.27-1.13-.41-2.51-5.69 2.17-17.1 3.71-21.03 1.14-2.91 4.95-7.16 4.95-9.31 0-6.99-11.11-8.02-25.4-8.02-22.22.01-23.9 3.86-23.9 7.78 0 4.07 6.61 5.17 7.54 12.26.39 2.95-1.87 12.96-3.01 18.52-3.99 19.28 2.77 34.96 16.3 39.58 13.75 4.69 29.8.4 37.08-16.47 5.05-11.71 19.01-63.46 21.46-70.01 2.19-5.86 5.43-17.64 8.15-17.93 1.68-.17 3.64 6.98 11.07 9.24 5.21 1.59 12.45 1.6 12.45 1.6s-4.18-4.75-4.18-4.75z" fill="url(#a)"/><path d="m121.49 29.41c-.65-.52-.98-1.06-1.26-1.86-.36-1.01-.72-1.97-1.32-2.87-1.09-1.64-2.82-2.7-4.82-3.93-1.05-.65-2.14-1.3-3.24-2.13-1.34-.98-3.89-.79-4.65.83.44.45.87.76 1.04 1.05.84 1.51.28 3.23-.34 4.48-.73 1.47-3.09 2.53-5.12 1.89-.13.37-.22.94-.26 1.34-.05.44.09.94.25 1.33.36.86 1.09 1.54 1.98 1.83 1.96.64 3.95 1.32 5.93 2 2.47.84 4.98 1.59 7.43 2.49 1.06.39 4.34 1.4 5.04 1.35 3.64-.29 3.52-4.47-.66-7.8z" fill="url(#b)"/><path d="m67.54 32.43c-.46 1-.02 2.19.98 2.65l3.63 1.67c1 .46 2.19.02 2.65-.98s.02-2.19-.98-2.65l-3.63-1.67c-1-.46-2.18-.02-2.65.98z" fill="#f4511e"/><ellipse cx="68.95" cy="33.13" fill="#ff7043" rx="6" ry="4" transform="matrix(.418 -.9084 .9084 .418 10.0373 81.9198)"/><path d="m60.86 46.97c-.46 1-.02 2.19.98 2.65l3.63 1.67c1 .46 2.19.02 2.65-.98s.02-2.19-.98-2.65l-3.63-1.67c-1.01-.47-2.19-.03-2.65.98z" fill="#f4511e"/><ellipse cx="62.26" cy="47.66" fill="#ff7043" rx="6" ry="4" transform="matrix(.418 -.9084 .9084 .418 -7.0606 84.2964)"/><path d="m54.17 61.5c-.46 1-.02 2.19.98 2.65l3.63 1.67c1 .46 2.19.02 2.65-.98s.02-2.19-.98-2.65l-3.63-1.67c-1-.46-2.19-.02-2.65.98z" fill="#f4511e"/><ellipse cx="55.58" cy="62.2" fill="#ff7043" rx="6" ry="4" transform="matrix(.418 -.9084 .9084 .418 -24.1577 86.6847)"/></svg>