<svg enable-background="new 0 0 128 128" viewBox="0 0 128 128" xmlns="http://www.w3.org/2000/svg" xmlns:xlink="http://www.w3.org/1999/xlink"><linearGradient id="a" gradientTransform="matrix(.9996 .0298 -.0298 .9996 1.9492 -1.8922)" gradientUnits="userSpaceOnUse" x1="96.9652" x2="12.9934" y1="48.0479" y2="136.6952"><stop offset=".0131" stop-color="#b3b3b3"/><stop offset=".3172" stop-color="#919191"/><stop offset=".7654" stop-color="#5e5e5e"/></linearGradient><linearGradient id="b" gradientTransform="matrix(.9996 .0298 -.0298 .9996 1.9492 -1.8922)" gradientUnits="userSpaceOnUse" x1="-.5573" x2="97.8078" y1="127.2803" y2="23.4882"><stop offset=".0148" stop-color="#b3b3b3"/><stop offset=".4556" stop-color="#5e5e5e"/><stop offset=".9754" stop-color="#919191"/></linearGradient><linearGradient id="c" gradientTransform="matrix(-.726 -.6878 .6878 -.726 72.239 149.4263)" gradientUnits="userSpaceOnUse" x1="63.7698" x2="63.7698" y1="131.339" y2="93.7427"><stop offset="0" stop-color="#ccc"/><stop offset=".5372" stop-color="#999"/><stop offset="1" stop-color="#fff"/></linearGradient><path d="m105.87 44.96-.17-.75-.65-.02-3.08-2.07-1-.67-.47 1.11c-2.06 4.83-48 54.52-76.12 71.68l-.38.23-.08.44c-.31 1.6-.61 3.18-.89 4.67l-.38 2.02 1.82-.94c15.85-8.19 37.09-28.06 52.11-43.29 8.61-8.73 16.02-16.77 20.72-21.98 2.83-3.14 4.9-5.49 6.14-6.92 2.56-2.97 2.56-2.97 2.43-3.51z" fill="url(#a)"/><path d="m87.7 23.94-2.63-3.18-.64-.77-.77.64c-5.37 4.45-52.95 44.3-71.06 73.38-.26.42-.67 1-1.14 1.66-3.33 4.73-10.27 14.56-4.36 22.21 2.49 3.22 5.88 5.06 9.55 5.17 2.68.08 5.3-.68 7.58-2.19 2.8-1.86 4.75-4.65 5.48-7.85.74-3.22.16-6.47-1.62-9.16-2.1-3.15-5.68-5.11-9.59-5.22-.53-.02-1.06 0-1.58.05 16.79-28.28 68.38-71.44 70.62-73.31l.76-.64zm-63.76 82.68c1.02 1.53 1.34 3.4.91 5.27-.45 1.95-1.65 3.65-3.38 4.8-1.41.94-3.02 1.41-4.67 1.36-2.33-.07-4.36-1.16-5.58-2.99-1.02-1.53-1.34-3.4-.91-5.27.45-1.95 1.65-3.65 3.38-4.8 1.41-.94 3.02-1.41 4.67-1.36 2.33.06 4.36 1.15 5.58 2.99z" fill="url(#b)"/><path d="m79.64 24.32c14.9 11.02 28.5-2.25 28.5-2.25l-8.66-7.17z" fill="#666"/><path d="m79.4 23.69c8.89 3.89 18.53-3.46 23.1-6.54 4.56-3.09 5.24-1.62 7.98 1.8s.02 4.76-8.58 11.45 2.51 18.44 2.51 18.44 8.24-8.27 14.89-16.8c5.33-6.84 5.85-13.39-1.64-21.54-16.24-17.66-38.06 12.98-38.26 13.19z" fill="url(#c)"/></svg>