<svg height="64" width="64" xmlns="http://www.w3.org/2000/svg" xmlns:xlink="http://www.w3.org/1999/xlink"><linearGradient id="a"><stop offset="0" stop-color="#2a2c2f"/><stop offset="1" stop-color="#424649"/></linearGradient><linearGradient id="b" gradientUnits="userSpaceOnUse" x2="0" xlink:href="#a" y1="58" y2="36"/><linearGradient id="c" gradientTransform="matrix(-1 0 0 1 439.57144 491.79797)" gradientUnits="userSpaceOnUse" x2="0" xlink:href="#a" y1="58" y2="36"/><linearGradient id="d" gradientUnits="userSpaceOnUse" x2="0" xlink:href="#a" y1="16" y2="6"/><linearGradient id="e" gradientTransform="translate(376.57144 491.79797)" gradientUnits="userSpaceOnUse" x2="0" y1="28" y2="6"><stop offset="0" stop-color="#197cf1"/><stop offset="1" stop-color="#20bcfa"/></linearGradient><linearGradient id="f" gradientUnits="userSpaceOnUse" x1="425.57144" x2="432.57144" xlink:href="#g" y1="528.79797" y2="535.79797"/><linearGradient id="g"><stop offset="0" stop-color="#292c2f"/><stop offset="1" stop-opacity="0"/></linearGradient><linearGradient id="h" gradientTransform="matrix(-1 0 0 1 439.57144 491.79797)" gradientUnits="userSpaceOnUse" x1="56" x2="49" xlink:href="#g" y1="37" y2="44"/><g transform="translate(-376.57144 -491.79797)"><path d="m30.908203 10c-11.58363 0-20.908203 9.324573-20.908203 20.908203v1c0-7.31379 3.722786-13.720888 9.378906-17.455078.30558.20177.68347.284733 1 .470703.31277.18376.665342.297084.988282.464844.32476-.16713.626457-.369181.960937-.519531-.006-.003-.013131-.004813-.019531-.007813 2.62319-1.18218 5.525709-1.861328 8.599609-1.861328h2.183594c3.0739 0 5.976409.679148 8.599609 1.861328-.006.003-.013231.004813-.019531.007813.33449.15035.636178.352401.960937.519531.322941-.16776.675512-.281084.988282-.464844.31653-.18597.69442-.268933 1-.470703 5.65612 3.73419 9.378906 10.141288 9.378906 17.455078v-1c0-11.58363-9.324573-20.908203-20.908203-20.908203z" fill="url(#d)" transform="translate(376.57144 491.79797)"/><path d="m408.57144 497.79797c-13.296 0-24 10.704-24 24v6 1c0 .554.446 1 1 1h2c.554 0 1-.446 1-1v-1-8c0-11.08 8.92-20 20-20s20 8.92 20 20v8 1c0 .554.446 1 1 1h2c.554 0 1-.446 1-1v-1-6c0-13.296-10.704-24-24-24z" fill="url(#e)"/><path d="m32 7c-11.08 0-20 8.92-20 20v1c0-11.08 8.92-20 20-20s20 8.92 20 20v-1c0-11.08-8.92-20-20-20zm-24 29v1c0 .554.446 1 1 1h2c.554 0 1-.446 1-1v-1c0 .554-.446 1-1 1h-2c-.554 0-1-.446-1-1zm44 0v1c0 .554.446 1 1 1h2c.554 0 1-.446 1-1v-1c0 .554-.446 1-1 1h-2c-.554 0-1-.446-1-1z" fill="#1a89f3" transform="translate(376.57144 491.79797)"/><path d="m423.57144 527.79797s3 0 3 2c0 0 2 5 5 5 .554 0 1 .446 1 1v6c0 .554-.446 1-1 1-3 0-5 5-5 5 0 2-3 2-3 2h-1s-3 0-3-2v-18c0-2 3-2 3-2z" fill="url(#c)"/><path d="m432.57144 540.79797v1c0 .554-.446 1-1 1-3 0-5 5-5 5 0 2-3 2-3 2h-1s-3 0-3-2v-1c0 2 3 2 3 2h1s3 0 3-2c0 0 2-5 5-5 .554 0 1-.446 1-1z" fill="#1c1e20"/><path d="m385.57144 529.79761h1.999998v4h-1.999998z" fill="#8ca5ad"/><path d="m16 36s-3 0-3 2c0 0-2 5-5 5-.553998 0-1 .446002-1 1v6c0 .553998.446002 1 1 1 3 0 5 5 5 5 0 2 3 2 3 2h1s3 0 3-2v-18c0-2-3-2-3-2z" fill="url(#b)" transform="translate(376.57144 491.79797)"/><path d="m383.57144 540.79797v1c0 .554.446 1 1 1 3 0 5 5 5 5 0 2 3 2 3 2h1s3 0 3-2v-1c0 2-3 2-3 2h-1s-3 0-3-2c0 0-2-5-5-5-.554 0-1-.446-1-1z" fill="#1c1e20"/><rect fill="#afc0c6" height="13" rx=".999996" width="2" x="385.57147" y="532.79797"/><circle cx="386.57147" cy="538.79797" fill="#2b2d30" r="1"/><g transform="scale(-1 1)"><path d="m-431.57144 529.79761h1.999998v4h-1.999998z" fill="#8ca5ad"/><rect fill="#afc0c6" height="13" rx=".999996" width="2" x="-431.57141" y="532.79797"/><circle cx="-430.57141" cy="538.79797" fill="#2b2d30" r="1"/></g><path d="m13.994141 36.46875c-.547347.291194-.994141.760844-.994141 1.53125v18c0 .770406.446794 1.240056.994141 1.53125.000699-.010871.005859-.020197.005859-.03125v-21c0-.011053-.00516-.020379-.005859-.03125z" fill="#afc0c6" transform="translate(376.57144 491.79797)"/><path d="m425.5773 528.26672c.54735.29119.99414.76084.99414 1.53125v18c0 .77041-.44679 1.24006-.99414 1.53125-.0007-.0109-.006-.0202-.006-.0312v-21c0-.011.005-.0204.006-.0312z" fill="#afc0c6"/><path d="m32 11-1 2h1 1zm1 2h.091797c1.21752 0 2.407403.11035 3.564453.3125l-.65625-1.3125-1 1-1-1zm-2 0-1-1-1 1-1-1-.65625 1.3125c1.157046-.202151 2.346925-.3125 3.564453-.3125z" fill="#1c1e20" fill-rule="evenodd" transform="translate(376.57144 491.79797)"/><path d="m425.57144 528.26477v9.5332 1 10.5332c.54985-.29094 1-.76023 1-1.5332 0 0 2-5 5-5 .554 0 1-.446 1-1v-6c0-.554-.446-1-1-1-3 0-5-5-5-5 0-.77297-.45015-1.24226-1-1.5332z" fill="url(#f)" fill-rule="evenodd"/><path d="m390.57144 528.26477v9.5332 1 10.5332c-.54985-.29094-1-.76023-1-1.5332 0 0-2-5-5-5-.554 0-1-.446-1-1v-6c0-.554.446-1 1-1 3 0 5-5 5-5 0-.77297.45015-1.24226 1-1.5332z" fill="url(#h)" fill-rule="evenodd"/></g></svg>