<svg enable-background="new 0 0 128 128" viewBox="0 0 128 128" xmlns="http://www.w3.org/2000/svg" xmlns:xlink="http://www.w3.org/1999/xlink"><linearGradient id="a"><stop offset="0" stop-color="#ff1744"/><stop offset=".2555" stop-color="#fd1641"/><stop offset=".4254" stop-color="#f81338"/><stop offset=".5703" stop-color="#ef0e29"/><stop offset=".7004" stop-color="#e10714"/><stop offset=".7931" stop-color="#d50000"/><stop offset="1" stop-color="#d50000"/></linearGradient><radialGradient id="b" cx="74.032" cy="71.385" gradientTransform="matrix(.9995 -.0315 -.0315 -.9995 -23.61 152.043)" gradientUnits="userSpaceOnUse" r="45.443" xlink:href="#a"/><linearGradient id="c" gradientTransform="matrix(.7363 .6767 .5637 -.6134 -37.2786 74.2938)" gradientUnits="userSpaceOnUse" x1="67.3278" x2="66.6358" y1="155.438" y2="90.8211"><stop offset="0" stop-color="#6d6c6b"/><stop offset="1" stop-color="#504f4f"/></linearGradient><linearGradient id="d" gradientTransform="matrix(.9991 -.0422 -.0422 -.9991 -22.9344 152.6658)" gradientUnits="userSpaceOnUse" x1="145.6317" x2="125.7116" xlink:href="#a" y1="141.2673" y2="121.346"/><path d="m60.46 60.5s-3.84-4.37-7.75-2.61c-5.23 2.35-1.65 8.22-8.64 10.64-7.63 2.64-13.04 7.67-10.43 13.78 2.8 6.55 13.97 6.92 14.5 23.73.25 8.05 6 7.85 8.54 5.2 4.46-4.65 4.02-19.05 8.63-24.18s16.04-3.82 20.18-13.38c0 0-7.1 7.13-16.12.1-4.27-3.34-4.22-8.9-4.22-8.9z" fill="#fffde7"/><path d="m69.28 49.96s.47.48-.89-.69c-2.9-2.49-8.87 5.5-13.36 1.04-4.17-4.15 1.14-11.36 5.58-15.69 3.22-3.13.89-6.12-1.73-5.97-2.94.17-10.43 1.82-15.46 9.29-7.64 11.34-4.02 17.36-11.98 23.43-7.95 6.05-25.52 8.19-26.73 23.55-.69 8.81 3.4 13.83 8.64 20.27 3.63 4.46 12.34 12.17 18.83 15.41s13.68 5.04 20.32.61c14.69-9.79 12.06-20.92 14.54-27.36 2.85-7.38 11.83-5 19.08-11.92 4.79-4.57 5.21-8.51 4.88-11.76-.23-2.33-1.12-3.26-2.34-3.83-1.06-.5-2.85.19-3.75 2.02-2.28 4.63-5.94 7.34-10.78 3.52-3.91-3.09-.76-9.16-.76-9.16z" fill="url(#b)"/><path d="m58.29 58.87c-.8-.6-5.06-3.31-8.76.1-3.99 3.67-.74 8.68-7.05 9.65-7.98 1.23-12.72 6.55-10.11 12.66 2.8 6.55 15.24 7.94 15.77 24.75.25 8.05 5.88 7.72 8.54 5.2 6.16-5.83 2.6-18.71 8.63-24.18 5.2-4.72 13.09-2.14 16.87-8.75.67-1.17.71-2.19-.89-1.53-2.95 1.23-6.63 1.85-10.64-2.08-3.28-3.22-2.3-7.09-2.3-7.09s-9.3-8.16-10.06-8.73z" fill="#fffde7"/><circle cx="54.19" cy="106.24" fill="#424242" r="2.64"/><ellipse cx="55.14" cy="96.61" fill="#424242" rx="3.37" ry="3.33" transform="matrix(.6845 -.729 .729 .6845 -53.0369 70.6772)"/><path d="m109.77 21.43-4.34-3.94-4.29-3.99-43.92 44.35c-.45.44-.28 1.3.38 1.93l4.78 4.56 4.95 4.38c.68.6 1.56.7 1.95.21 0 0 40.49-47.5 40.49-47.5z" fill="url(#c)"/><path d="m96.26 19.31c.91.83 5.24 4.8 7.09 6.5.37.34 1.09 1 1.09 1s6.37 1.48 8.44-3.84l3.66-9.39s.99.92 2.63 1.06c2.51.22 5.07-2.76 4.23-5.45-1.05-3.36-2.68-4.72-8.78-3.05-2.19.6-13.68 3.73-13.68 3.73-6.23 1.98-5.77 8.45-4.68 9.44z" fill="url(#d)"/><path d="m21.97 88.96c-.29.31-.36.71-.16.9l18.32 17.2c.2.19.6.09.89-.22l3.36-3.57c.29-.31.36-.71.16-.9l-18.32-17.2c-.2-.19-.6-.09-.89.22z" fill="#424242"/></svg>