<svg viewBox="0 0 50 50" xmlns="http://www.w3.org/2000/svg"><path d="m20 2v3c0 1.6449698 1.35503 3 3 3h1v8.033203c-2.154287.136383-4.190108.706798-6.027344 1.607422a1.0001544 1.0001544 0 1 0 .878906 1.796875c.961951-.471554 1.983743-.834535 3.048829-1.080078-.562816 3.522907-.900391 8.321128-.900391 13.642578 0 .663628.024861 1.281828.035156 1.927734-1.392426-.04776-2.720936-.119845-3.976562-.21289-.014386-.327183-.034823-.650425-.041016-.982422a1.0001 1.0001 0 0 0 -1.033203-.994141 1.0001 1.0001 0 0 0 -.966797 1.033203c.004763.255325.021959.503107.03125.75586-1.494758-.149058-2.843903-.324601-3.998047-.529297-.023298-.330917-.050781-.661106-.050781-.998047 0-.13075.019427-.312696.029297-.560547a1.0001 1.0001 0 0 0 -.974609-1.054687 1.0001 1.0001 0 0 0 -1.023438.974609c-.0061353.154149-.03125.365375-.03125.640625 0 2.33617.5147053 4.550244 1.417969 6.552734a1.0001 1.0001 0 0 0 .136719.28125c1.590276 3.348324 4.302229 6.052668 7.65625 7.632813a1.0001759 1.0001759 0 0 0 .167968.082031c2.020521.923051 4.257923 1.451172 6.621094 1.451172 2.23247 0 4.361333-.461371 6.292969-1.289062a1.0001 1.0001 0 1 0 -.78711-1.837891c-.768904.32947-1.576345.582748-2.408203.771484.180012-1.126389.322782-2.44392.453125-3.80664.909637-.081223 1.801481-.187924 2.664063-.326172a1.0001 1.0001 0 1 0 -.316406-1.97461c-.704314.112883-1.432377.200293-2.171876.273438.087653-1.236047.158569-2.525143.203126-3.880859 1.68325-.055322 3.284137-.144707 4.777343-.265626a1.0001 1.0001 0 0 0 .580078-.058593c1.575527-.139237 3.06486-.300302 4.341797-.503907-.139319.599952-.30379 1.190854-.515625 1.761719a1.0001 1.0001 0 1 0 1.875.695313c.641107-1.727693 1.011719-3.59789 1.011719-5.558594 0-6.372549-3.7516-11.868008-9.154297-14.439453a1.0001 1.0001 0 0 0 -.294922-.142578c-1.712858-.772391-3.583002-1.244777-5.550781-1.367188v-8.050781h1c1.64497 0 3-1.3550302 3-3v-3zm2 2h6v1c0 .5650302-.43497 1-1 1h-4c-.56503 0-1-.4349698-1-1zm-14 9s2.5625 3.496219 3.6875 4.949219c-1.125 1.453-3.6875 4.949218-3.6875 4.949219 0 0 3.496219-2.562594 4.949219-3.683594 1.453 1.121 4.953125 3.683593 4.953125 3.683594 0 0-2.5655-3.496219-3.6875-4.949219 1.122-1.453 3.6875-4.949219 3.6875-4.949219s-3.500125 2.562594-4.953125 3.683594c-1.453-1.121-4.949219-3.683594-4.949219-3.683594zm17 5c.336941 0 .66713.027483.998047.050781.203937 1.151178.378486 2.496279.527344 3.986328-.505182-.018469-1.010182-.037109-1.525391-.037109-.514696 0-1.022423.011659-1.525391.03125.148424-1.484527.322271-2.824918.525391-3.972656.332081-.02416.661464-.058594 1-.058594zm3.097656.353516c.830791.187273 1.637108.440174 2.404297.767578.479519 1.030061.901832 2.192877 1.259766 3.460937-1.034804-.181722-2.105104-.325597-3.210938-.421875-.130384-1.362737-.273071-2.680146-.453125-3.80664zm5.199219 2.380859c1.132717.834905 2.131676 1.83425 2.966797 2.966797-.734078-.246721-1.506303-.463541-2.304688-.660156-.196947-.799067-.415019-1.572003-.662109-2.306641zm-8.296875 3.265625c.578812 0 1.148066.016139 1.712891.041016.093707 1.260488.166802 2.595546.214843 3.99414-.64615-.010282-1.263824-.035156-1.927734-.035156-.662284 0-1.286347.019874-1.927734.03125.048021-1.396623.121285-2.729396.214843-3.988281.564939-.025985 1.134435-.042969 1.712891-.042969zm3.726562.181641c1.239076.121027 2.432525.298769 3.5625.529297.230652 1.129393.408095 2.322173.529297 3.560546-1.237755-.087812-2.530822-.154644-3.888671-.199218-.044649-1.359085-.115169-2.651829-.203126-3.890625zm-15.726562.818359s1.097875 1.937969 1.796875 3.042969c-.699 1.074-1.796875 2.957031-1.796875 2.957031s1.91-1.069906 3-1.753906c1.09.684 3 1.753906 3 1.753906s-1.097875-1.883031-1.796875-2.957031c.699-1.105 1.796875-3.042969 1.796875-3.042969s-1.91 1.124844-3 1.839844c-1.09-.715-3-1.839844-3-1.839844zm21.416016.234375c1.268964.357803 2.432232.781955 3.46289 1.261719.327729.767681.580172 1.574872.767578 2.40625-1.126568-.180227-2.443909-.324733-3.80664-.455078-.096543-1.107048-.241599-2.177049-.423828-3.212891zm-9.416016 4.765625c.675872 0 1.305534.026001 1.962891.037109.011127.65734.037109 1.287031.037109 1.962891s-.025982 1.305527-.037109 1.962891c-.657364.011127-1.287031.037109-1.962891.037109s-1.305545-.026002-1.962891-.037109c-.011127-.657364-.037109-1.287031-.037109-1.962891 0-.677876.025916-1.309486.037109-1.96875.652436-.011686 1.290121-.03125 1.962891-.03125zm3.964844.072266c1.398631.047975 2.733631.119242 3.99414.21289.024974.56544.041016 1.135386.041016 1.714844 0 .579994-.034939 1.144887-.0625 1.712891-1.254603.092976-2.581537.167059-3.972656.214843.010295-.645906.035156-1.264106.035156-1.927734s-.02486-1.281845-.035156-1.927734zm5.998047.40039c1.490087.148835 2.835236.325143 3.986328.529297.023298.330917.050781.661106.050781.998047 0 .336472-.022535.667833-.046875.998047-1.151207.204103-2.497427.378368-3.988281.527344.021051-.502426.035156-1.009256.035156-1.525391 0-.51588-.01856-1.02152-.037109-1.527344zm-23.609375 4.623047c1.13033.180948 2.452277.324209 3.820312.455078.095777 1.104833.231559 2.178689.41211 3.212891-1.269686-.358177-2.433652-.781674-3.464844-1.261719-.327647-.767759-.580275-1.5748-.767578-2.40625zm5.845703.630859c1.232745.08746 2.519399.156639 3.871093.201172.044647 1.359147.115171 2.651769.203126 3.890625-1.234213-.12073-2.422792-.297873-3.548829-.527343-.229815-1.130813-.404811-2.324576-.52539-3.564454zm5.873047.238282c.646161.010325 1.263812.035156 1.927734.035156.663628 0 1.281828-.024861 1.927734-.035156-.048043 1.398678-.121134 2.733576-.214843 3.99414-.564229.025278-1.134108.041016-1.712891.041016-.578798 0-1.148077-.016098-1.712891-.041016-.093709-1.260564-.1668-2.595462-.214843-3.99414zm9.927734 2.136718s2.5625 3.496219 3.6875 4.949219c-1.125 1.453-3.6875 4.949219-3.6875 4.949219s3.496219-2.562594 4.949219-3.683594c1.453 1.122 4.953125 3.683594 4.953125 3.683594s-2.5655-3.496219-3.6875-4.949219c1.121-1.453 3.6875-4.949218 3.6875-4.949219 0 0-3.500125 2.562594-4.953125 3.683594-1.453-1.122-4.949219-3.683593-4.949219-3.683594zm-19.265625 2.195313c.736322.247657 1.511463.46483 2.3125.662109.195084.79573.407219 1.570795.652344 2.302735-1.131644-.834797-2.13048-1.832861-2.964844-2.964844zm4.5 1.119141c1.036442.182335 2.107118.327281 3.214844.423828.130383 1.362768.273066 2.680282.453125 3.80664-.830791-.187273-1.637108-.440174-2.404297-.767578-.480022-1.03127-.906848-2.191434-1.263672-3.46289zm5.240234.546875c.505192.018502 1.01017.037109 1.525391.037109.514066 0 1.021894-.010232 1.525391-.029297-.148709 1.486973-.323769 2.829611-.527344 3.978516-.330772.023456-.661025.050781-.998047.050781-.336941 0-.66713-.027483-.998047-.050781-.20393-1.150908-.378485-2.496247-.527344-3.986328z"/></svg>