<svg viewBox="0 0 72 72" xmlns="http://www.w3.org/2000/svg"><path d="m33.0751 48.3332c2.3369-.9131 4.8243-2.2304 5.129-2.5878.1191-.1397.4553-2.3764.5129-2.4946-.7393.0313-3.7431-.8208-4.6161-1.0258-1.6875-.3936-4.8421-5.8358-4.1731-7.7401.5156-1.4688 3.6835-7.064 3.6835-7.064s-.7169-.5712-1.8532-.381c-.7231.1211-1.979.9429-2.1567 1.1504-1.1455 1.3379-3.2272 6.7993-4.1032 8.1597-.9385 1.4541-2.1622 2.3806-3.8234 2.6111-1.4424.2002-3.8944.9347-6.2714 2.7277-2.7988 2.1103-5.1115 8.3067-1.632 13.0323.8211 1.1148 6.0415 4.6902 10.2347 3.7535 3.6128-.807 6.8309-3.4038 7.1573-6.4578.0086-.0805-.0757-2.9063 1.9117-3.6836z" fill="#ea5a47"/><ellipse cx="22.7523" cy="47.7785" fill="#fff" rx="5.4696" ry="5.4697" transform="matrix(.9999 -.0158 .0158 .9999 -.751 .3649)"/><path d="m58.0079 14.3936c-.0625.0039-5.6067 2.7464-6.6692 3.3904-1.541 1.0313-2.5045 3.7789-2.6432 3.9146l-22.9248 21.7183c.4381.4626 1.6745 1.6307 1.9548 2.1867l23.8869-22.6504c-.0875-.0921 1.9549-.3566 3.3142-1.9664.3054-.3617 1.1459-1.5814 2.2198-2.5511 1.074-.9697 2.3815-1.6893 2.75-2.4187.7566-1.4973-1.3859-1.6561-1.8885-1.6234z" fill="#a57939"/><path d="m32.3593 41.0938c-.0801.0596-.1554.1276-.2148.2158.0591-.0877.1377-.1514.2163-.2139z" fill="#ea5a47"/><path d="m28.0857 44.1359c-.0324-.0472-.0661-.0932-.0998-.1396.0337.0464.0674.0925.0998.1396z" fill="#ea5a47"/><g style="fill:none;stroke:#000;stroke-linecap:round;stroke-linejoin:round;stroke-miterlimit:10;stroke-width:2"><path d="m20.8988 46.9101 2.363 2.2895"/><path d="m52.3386 22.2637s1.3423-.0178 2.2362-.5799c.8941-.562 1.0716-1.066 1.0637-1.542s.7356-2.3263 2.3062-2.7289c1.5708-.4028 2.4877-1.2997 2.128-2.2506-.3598-.9508-2.1142-.6964-2.5538-.6898-.4397.0066-3.1881 1.6713-3.1881 1.6713s-3.5106 2.3476-3.9665 2.9203c-.4557.5728-.5206 1.0193-.5206 1.0193l-23.6392 23.0703"/><ellipse cx="22.7523" cy="47.7785" rx="5.4696" ry="5.4697" transform="matrix(.9999 -.0158 .0158 .9999 -.751 .3649)"/><path d="m30.1674 38.3398c-.6184-1.6047-.6911-3.4291-.0767-5.1788.8444-2.4046 3.2143-5.4706 3.2061-5.5286-.036-.2561-2.4648-.6658-4.0754 1.2156s-1.9747 3.5723-2.4923 4.7953-.6392 1.4866-1.4695 2.7743c-.7821 1.2129-2.3485 2.2248-3.7112 2.4143-1.3627.1894-3.5669.6275-6.2429 2.6452-3.1998 2.4126-5.3398 8.5125-1.546 13.664 1.7344 2.355 6.314 5.2555 11.4299 3.3176 3.7656-1.4265 5.0953-3.635 5.5126-4.6436.5701-1.378.8892-3.167.9549-3.6356.1095-.7806-.0477-1.6554 1.7554-2.3604 1.8031-.7051 3.987-1.7099 4.5698-2.3949.6572-.7728.7207-1.5145.4697-2.1736-.1366.0216-1.1682.3697-3.1645-.0969-1.9963-.4665-2.0687-1.1225-2.3125-1.2866"/></g></svg>