<svg fill="none" height="24" viewBox="0 0 24 24" width="24" xmlns="http://www.w3.org/2000/svg"><g stroke="#1c274c" stroke-width="1.5"><path d="m16.7582 12.6766-.8451-3.29734c-.4406-1.71888-.6609-2.57832-1.2361-3.01038-.1929-.14485-.409-.25232-.6382-.31729-.6837-.19382-1.4606.17004-3.0146.89775-1.15073.53888-1.72609.80831-2.32646.99888-.20873.06626-.4195.1253-.63196.17702-.61108.14878-1.23822.21618-2.4925.35098-1.69383.18205-2.54075.27307-3.04009.79825-.1674.17607-.3032.38213-.40093.60837-.29153.67486-.07124 1.53426.36933 3.25316l.84514 3.2974c.99346 3.8759 4.29655 5.0952 6.51619 5.4724.67718.115 1.01578.1726 2.04408-.1155 1.0283-.288 1.294-.5148 1.8254-.9684 1.7418-1.4869 4.0193-4.2693 3.0258-8.1453z"/><path d="m16.5 17.221c1.7412-.7504 3.4791-2.1572 4.1533-4.7876l.8451-3.29738c.4406-1.71889.6609-2.57833.3694-3.25318-.0978-.22624-.2336-.4323-.401-.60837-.4993-.52518-1.3462-.6162-3.0401-.79825-1.2542-.1348-1.8814-.2022-2.4925-.35098-.2124-.05172-.4232-.11076-.6319-.17702-.6004-.19057-1.1757-.46-2.3265-.99888-1.5539-.72771-2.3309-1.09157-3.01454-.89775-.22918.06497-.44534.17244-.63819.31729-.57524.43206-.79553 1.2915-1.23609 3.01038l-.69953 2.7292" opacity=".5"/><path d="m5.25882 13.2955c.06011-.6192.52115-1.1749 1.19007-1.3541.66892-.1793 1.34602.0714 1.70771.5777" stroke-linecap="round"/><path d="m19.1797 8.93565c-.0602-.61925-.5212-1.17492-1.1901-1.35415-.6689-.17924-1.346.07146-1.7077.5777" opacity=".5" stroke-linecap="round"/><path d="m11.0547 11.7423c.0601-.6193.5212-1.1749 1.1901-1.3542.6689-.1792 1.346.0715 1.7077.5777" stroke-linecap="round"/></g><path d="m11.0963 7.04186c-.2408.33703-.7092.41504-1.0463.17425-.33701-.2408-.41502-.70922-.17422-1.04625zm.9033-.28925c-.3787-.10148-.7304.04726-.9033.28925l-1.22052-.872c.55052-.77048 1.55292-1.12314 2.51212-.86614zm.4785.31282c-.1106-.14266-.274-.25804-.4785-.31282l.3883-1.44889c.5245.14055.9666.44404 1.2756.84257z" fill="#1c274c" opacity=".5"/><path d="m13.2007 16.231s-1.0249-.7607-2.8123-.2818c-1.78746.479-2.29468 1.6502-2.29468 1.6502" stroke="#1c274c" stroke-linecap="round" stroke-width="1.5"/></svg>