<svg fill="none" height="219" viewBox="0 0 219 219" width="219" xmlns="http://www.w3.org/2000/svg"><path d="m89.6075 122.837 34.8075-36.9834 37.282-39.6703-6.57-6.569-39.457 37.1109-37.1958 34.9778z" fill="#f46262"/><path d="m179.1 37.5669 6.911-13.0529-9.214-9.2137-13.053 6.9103-6.91 13.0528 9.213 9.2138z" fill="#1b3954"/><path d="m106.969 133.799 48.158-39.9258-26.02-6.825-39.4142 41.8888-17.3611-17.361 36.7693-34.552-19.6215-8.7872-18.5555 24.2714-58.7376 45.2158 50.377 2.346 7.0383 63.43 11.9864-22.352 9.6403-18.044zm-27.3005 7.337-19.4938-19.494 6.2704-6.27 19.4939 19.494z" fill="#1b3954"/><path d="m205.035 133.842c-1.151-.298-2.303.384-2.602 1.493-.042.086-2.303 8.276-9.725 18.513-6.868 9.427-19.665 22.565-41.676 31.608-35.447 14.546-51.016-2.175-54.9835-7.635-.0853-.085-.1279-.171-.2132-.256l5.6307-5.631-6.5692-6.526-9.555 17.788-.5972 1.151 2.1328 2.133 5.8439-5.844c3.3699 4.522 13.1377 14.93 32.1627 14.93 7.678 0 16.849-1.706 27.684-6.143 23.034-9.469 36.471-23.29 43.637-33.229 7.849-10.835 10.195-19.408 10.281-19.75.341-1.151-.342-2.303-1.451-2.602z" fill="#f46262"/></svg>