<svg enable-background="new 0 0 512 512" viewBox="0 0 512 512" xmlns="http://www.w3.org/2000/svg"><path d="m279.826 505.129h33.388c14.752 0 26.958-11.475 27.873-26.199 4.53-72.864.587-147.925-25.031-216.206-12.139-32.355-29.087-63.002-53.373-87.862-17.844-18.266-21.631-25.79-39.611-12.721-29.181 21.212-9.329 24.14.645 43.465 15.076 29.209 27.917 48.676 34.833 82.474 12.244 59.839 6.195 123.406-6.098 183.653-3.524 17.265 9.755 33.396 27.374 33.396z" fill="#e5aa6e"/><path d="m477.584 109.253s-.167-.264-.491-.776c-.328-.508-.793-1.283-1.448-2.244-.647-.969-1.445-2.163-2.384-3.568-.425-.696-1.103-1.474-1.742-2.28-.677-.802-1.396-1.654-2.156-2.554-.776-.908-1.594-1.865-2.451-2.868-.881-.923-1.803-1.888-2.764-2.894-1.918-2.043-4.087-4.174-6.554-6.26-1.215-1.076-2.495-2.162-3.823-3.279-1.338-1.098-2.781-2.116-4.241-3.226-1.47-1.087-2.977-2.239-4.586-3.285-1.626-1.034-3.289-2.093-4.988-3.174-.857-.536-1.716-1.104-2.611-1.612-.905-.488-1.819-.98-2.742-1.477-1.863-.992-3.76-2.003-5.691-3.031-1.97-.935-4.005-1.823-6.075-2.745-1.038-.449-2.076-.944-3.145-1.364-1.074-.408-2.156-.819-3.245-1.232-8.718-3.388-18.32-5.962-28.484-7.672-1.274-.206-2.553-.412-3.838-.619-1.287-.207-2.58-.434-3.888-.518-2.62-.232-5.26-.465-7.915-.7-5.329-.245-10.767-.504-16.246-.131-2.743.118-5.505.206-8.262.547-1.382.145-2.766.289-4.152.434l-2.078.251-.52.063-.26.032-.13.016c.608-.128-.976.192-.852.167l-.889.156c-2.372.415-4.75.831-7.129 1.247l-.902.161-1.103.262-2.207.53-4.419 1.089c-3.038.743-5.627 1.663-8.334 2.546-1.35.435-2.681.919-4.018 1.385-1.332.48-2.626 1.068-3.938 1.6-1.31.538-2.61 1.1-3.9 1.677l-1.937.857c-.642.294-1.264.635-1.896.951-2.526 1.269-4.992 2.637-7.456 3.972-9.693 5.706-18.441 12.704-25.898 20.44-.912.988-1.819 1.972-2.723 2.952-.894.986-1.804 1.934-2.617 2.992-1.647 2.06-3.279 4.1-4.893 6.118-1.6 2.309-3.167 4.574-4.65 6.851-.755-1.987-1.681-4.022-2.658-6.177-.522-1.198-1.144-2.374-1.797-3.573-.638-1.209-1.327-2.427-2.029-3.677-1.432-2.478-3.111-4.943-4.847-7.511-1.874-2.449-3.753-5.062-5.956-7.508-1.1-1.224-2.204-2.479-3.358-3.716-1.176-1.214-2.399-2.411-3.653-3.605-2.46-2.442-5.231-4.647-8.007-6.931-5.71-4.371-11.994-8.377-18.718-11.74-6.759-3.296-13.839-6.119-21.081-8.288-7.273-2.089-14.66-3.589-21.964-4.413-7.318-.774-14.526-.889-21.407-.471-1.724.141-3.427.324-5.104.49-.839.094-1.669.151-2.497.279-.825.13-1.646.26-2.462.389-1.628.267-3.229.501-4.801.827-1.572.349-3.115.678-4.626 1.045-3.026.671-5.912 1.654-8.673 2.468-2.743.998-5.364 1.92-7.817 2.976-1.226.534-2.411 1.097-3.563 1.626-1.153.53-2.27 1.047-3.336 1.627-1.072.549-2.099 1.132-3.092 1.682-.992.556-1.955 1.071-2.858 1.655-1.82 1.119-3.472 2.249-4.992 3.244-1.498 1.065-2.824 2.129-4.023 3.038-1.204.899-2.228 1.792-3.103 2.585-.88.78-1.605 1.478-2.196 2.023-1.155 1.13-1.771 1.732-1.771 1.732-1.171 1.149-1.942 2.734-2.034 4.502-.195 3.745 2.683 6.938 6.428 7.133l.588.031s.795.041 2.286.119c.727.023 1.624.052 2.678.086.517.012 1.074.024 1.667.038.6.043 1.234.087 1.893.114 1.319.058 2.775.163 4.315.212 1.561.118 3.242.299 4.982.405 3.514.335 7.378.764 11.465 1.417 1.013.106 2.06.367 3.104.539 1.037.184 2.093.372 3.167.563 1.059.231 2.136.466 3.23.705 1.083.224 2.172.439 3.271.752 1.098.294 2.2.549 3.306.823 1.097.315 2.206.634 3.329.957 2.227.584 4.452 1.419 6.685 2.099 4.448 1.606 8.883 3.331 13.209 5.313 1.106.527 2.205 1.063 3.298 1.607-.686.032-1.374.059-2.055.114-2.048.144-4.13.184-6.153.424l-6.09.679c-8.046 1.124-15.971 2.586-23.495 4.707-.945.253-1.893.488-2.826.754-.927.284-1.853.568-2.776.851-1.84.579-3.678 1.122-5.481 1.723-3.573 1.296-7.126 2.474-10.505 3.915-1.702.682-3.381 1.377-5.032 2.088-1.637.747-3.262 1.461-4.85 2.22-3.2 1.445-6.232 3.078-9.19 4.61-2.937 1.588-5.743 3.218-8.434 4.814-1.337.82-2.639 1.645-3.91 2.464-1.27.822-2.526 1.589-3.717 2.434-2.394 1.657-4.67 3.244-6.787 4.838-2.108 1.615-4.087 3.155-5.914 4.647-1.81 1.534-3.484 2.98-5.012 4.337-1.523 1.383-2.906 2.737-4.145 3.907-2.496 2.397-4.186 4.368-5.407 5.737-1.194 1.379-1.815 2.146-1.815 2.146-.514.638-.805 1.469-.749 2.351.119 1.872 1.733 3.293 3.605 3.174 0 0 .985-.062 2.8-.239.901-.102 2.011-.228 3.317-.377 1.299-.199 2.766-.321 4.38-.501 3.183-.413 7.109-.809 11.506-1.419 4.352-.557 9.262-1.185 14.618-1.87 2.647-.337 5.404-.639 8.208-1.038 2.807-.335 5.708-.681 8.691-1.037 1.479-.169 2.978-.34 4.495-.514 1.505-.203 3.033-.363 4.576-.514 1.545-.146 3.086-.349 4.646-.526 1.567-.137 3.14-.283 4.716-.458 1.576-.18 3.169-.32 4.763-.454 1.589-.145 3.19-.292 4.801-.439 1.6-.124 3.209-.249 4.827-.375 1.615-.124 3.227-.27 4.842-.35 1.614-.106 3.235-.179 4.847-.316 1.607-.07 3.218-.141 4.833-.211l2.411-.123 2.398-.057c1.595-.024 3.2-.106 4.779-.124 6.342-.08 12.521.056 18.467.372 2.92.279 5.866.376 8.627.791 2.839.233 5.476.684 8.166.9 1.296.191 2.573.38 3.864.516.634.088 1.307.109 1.912.222.612.107 1.228.195 1.844.282.614.092 1.233.161 1.85.236.308.04.618.07.929.097l.885.148c1.171.213 2.351.39 3.545.526.613.049 1.145.208 1.716.298.571.098 1.137.194 1.7.291.565.099 1.134.19 1.713.259.588.061 1.09.224 1.64.329 1.08.232 2.19.411 3.286.615 1.094.192 2.088.505 3.16.716 4.256.883 8.189 2.089 11.993 3.283 1.01.24 1.822.662 2.738.968.887.333 1.767.659 2.646.966.443.157.876.311 1.3.461.405.179.801.353 1.189.524.812.342 1.587.668 2.322.977 3.067 1.213 5.441 2.47 7.24 3.26.892.402 1.599.717 2.104.917.108.046.2.084.285.12.039 5.137.588 9.666 1.396 13.436.251 1.177.484 2.281.742 3.313.279 1.033.571 1.992.847 2.879.528 1.773 1.106 3.252 1.593 4.436.453 1.187.922 2.074 1.195 2.673.3.594.455.9.455.9.273.535.65 1.05 1.116 1.482 2.122 1.966 5.436 1.839 7.402-.283l2.06-2.224s.073-.078.216-.233c.137-.154.372-.385.618-.681.49-.592 1.314-1.468 2.226-2.554 1.671-1.986 4.123-4.899 7.242-8.606 2.55-3.06 5.646-6.776 9.197-11.038.389-.486.802-.97 1.224-1.454.203-.237.391-.505.586-.723l.574-.586.269-.296c.096-.118.162-.149.29-.359.229-.348.46-.698.693-1.051l.335-.535.168-.269c-.157.578-.021.134-.045.251l.04-.046.08-.091c.211-.244.434-.484.636-.731.816-.986 1.618-1.984 2.414-2.988l.602-.753.701-.728c.462-.481.928-.968 1.4-1.46 1.742-1.987 3.99-3.819 6.072-5.677 1.131-.896 2.353-1.751 3.505-2.625.603-.425 1.117-.889 1.781-1.282.642-.404 1.295-.796 1.914-1.209 4.957-3.302 10.574-6.051 16.23-8.679 5.664-2.623 11.339-5.19 17.079-7.919 5.755-2.627 11.601-5.295 17.447-7.963.59-.281 1.181-.573 1.774-.877l.89-.464.446-.238.847-.274c2.313-.716 4.604-1.523 6.9-2.284l.86-.289c.326-.072-2.424.489-1.225.241l.077-.023.154-.047.308-.094 1.235-.38 2.467-.833c.829-.26 1.639-.622 2.488-.81.843-.215 1.685-.45 2.528-.704 1.686-.498 3.376-1.043 5.101-1.385 1.717-.405 3.438-.904 5.173-1.267 1.737-.328 3.481-.706 5.231-1.072 1.75-.362 3.504-.586 5.264-.898.885-.151 1.767-.302 2.644-.452.883-.107 1.762-.213 2.636-.319.885-.111 1.766-.222 2.642-.333.884-.131 1.772-.271 2.642-.316 1.748-.131 3.5-.283 5.261-.474.886-.116 1.742-.114 2.608-.154.863-.028 1.738-.106 2.606-.157 3.524-.36 6.832-.099 10.262-.281 1.686.039 3.344.077 4.971.114.83.021 1.651.041 2.465.062.802.057 1.598.112 2.401.15 1.622.092 3.21.182 4.762.271 1.569.099 3.027.362 4.557.462 1.5.152 3.02.249 4.446.452 1.409.229 2.799.45 4.194.62 1.37.205 2.781.324 4.036.603 1.265.268 2.524.495 3.757.708 1.238.227 2.426.445 3.561.653 1.04.248 2.096.432 3.093.644 1.016.214 1.978.417 2.883.609.934.217 1.805.29 2.684.62 1.719.558 3.217.992 4.436 1.341 1.205.364 2.176.591 2.812.764.641.167.972.254.972.254l1.272.332c1.397.359 2.933.163 4.248-.669 2.535-1.599 3.288-4.947 1.687-7.477z" fill="#1b871b"/><path d="m434.753 205.002c-.098-4.231-.623-9.342-1.869-15.013-1.236-5.673-3.168-11.914-5.931-18.429-2.785-6.49-6.375-13.276-10.921-20.032-2.272-3.379-4.798-6.737-7.544-10.083-2.797-3.3-5.778-6.624-9.095-9.807-6.616-6.377-14.315-12.487-23.537-17.642-1.161-.647-2.337-1.275-3.524-1.891-1.229-.589-2.46-1.18-3.693-1.771-1.235-.588-2.556-1.119-3.841-1.672l-.975-.401-.245-.099c.342.109-.607-.206-.537-.185l-.085-.035-.342-.14-.684-.281c-.245-.098-.38-.166-.867-.332l-2.46-.844-2.088-.675c-1.381-.438-2.779-.813-4.154-1.161-2.765-.696-5.504-1.327-8.243-1.746-10.934-1.826-21.75-1.82-32.32-.235-5.16.771-10.263 1.948-15.24 3.514 2.364-3.095 4.855-6.217 7.463-9.336 3.918-4.714 8.086-9.411 12.361-14.047 4.282-4.626 8.66-9.212 13.087-13.601 4.411-4.411 8.824-8.707 13.169-12.766 4.344-4.058 8.605-7.904 12.668-11.497 4.063-3.591 7.939-6.904 11.492-9.876 3.554-2.966 6.775-5.627 9.513-7.806.688-.525 1.335-1.074 1.951-1.583.606-.489 1.173-.948 1.701-1.375.535-.417 1.028-.849 1.488-1.23.459-.385.941-.72 1.338-1.027 1.619-1.254 2.473-1.982 2.473-1.982.582-.5 1.08-1.154 1.399-1.909 1.102-2.61-.121-5.619-2.731-6.72 0 0-1.034-.436-2.955-1.143-1.837-.704-5.039-1.556-8.779-2.369-1.904-.397-4.019-.786-6.344-1.135-2.309-.307-4.835-.604-7.523-.769-5.387-.363-11.493-.364-18.111.21-6.617.569-13.732 1.735-21.121 3.584-7.386 1.852-15.023 4.421-22.697 7.707-3.804 1.693-7.672 3.48-11.456 5.541-3.834 1.988-7.58 4.25-11.315 6.63-3.728 2.392-7.373 5.003-10.965 7.748-3.568 2.781-7.07 5.705-10.445 8.826-6.739 6.243-13.059 13.13-18.644 20.645-2.821 3.728-5.434 7.633-7.761 11.71-2.347 4.053-4.414 8.277-6.178 12.605-3.552 8.628-5.846 17.732-6.731 26.676-.475 4.456-.498 8.922-.297 13.192.065 1.009.148 2.006.242 2.995-1.547-.781-3.127-1.563-4.769-2.351-.546-.26-1.096-.521-1.649-.784-.559-.227-1.121-.455-1.686-.685-1.142-.455-2.298-.914-3.465-1.379-4.708-1.981-9.718-3.393-15.056-4.988-2.655-.693-5.374-1.271-8.181-1.894-1.397-.283-2.836-.653-4.253-.855-1.422-.217-2.864-.452-4.323-.639-5.873-.898-11.866-1.198-18.139-1.452-3.071.064-6.206.148-9.392.283-1.602.062-3.151.265-4.732.438-1.576.185-3.174.351-4.768.578-12.702 1.848-25.483 5.786-37.302 11.862-1.462.774-2.899 1.599-4.337 2.43-1.444.821-2.874 1.674-4.296 2.543-.708.438-1.435.853-2.126 1.314l-2.042 1.43c-1.364.951-2.718 1.92-4.055 2.915-1.333.997-2.705 1.953-3.976 3.026-1.266 1.078-2.549 2.135-3.78 3.257l-3.707 3.337-.922.837c-.304.275-.663.643-.991.96l-2.003 1.984-3.886 4.072-1.914 2.048-.95 1.026-.581.73c-1.517 1.891-2.954 3.858-4.426 5.784l-.549.725c.218-.225-2.125 2.257-1.177 1.266l-.089.123-.179.247-.357.494-1.42 1.975c-.92 1.331-1.839 2.66-2.756 3.987-1.858 2.632-3.531 5.351-5.115 8.108-3.321 5.408-6.002 11.084-8.582 16.636-1.185 2.836-2.299 5.67-3.403 8.46-.581 1.379-1.027 2.818-1.483 4.24-.451 1.417-.901 2.829-1.348 4.235-3.418 11.277-5.508 22.386-6.152 32.985-.091 1.314-.181 2.619-.271 3.915-.083 1.292-.044 2.609-.062 3.89-.003 2.572-.016 5.078.056 7.536.158 2.485.32 4.907.552 7.271.112 1.175.224 2.339.334 3.492.131 1.153.346 2.306.534 3.434.395 2.235.782 4.423 1.161 6.561.405 2.118.929 4.193 1.477 6.185.558 1.996 1.041 3.908 1.639 5.761.615 1.857 1.226 3.639 1.894 5.346 1.246 3.406 2.604 6.533 4.05 9.345.7 1.391 1.372 2.726 2.014 4.001.706 1.333 1.471 2.57 2.158 3.727.696 1.136 1.354 2.212 1.974 3.223.308.497.637.969.937 1.425.154.222.299.461.453.656.156.187.309.371.46.551 1.186 1.446 2.257 2.664 3.132 3.65.851.991 1.586 1.735 2.049 2.242.472.506.716.767.716.767l1.212 1.298c1.005 1.075 2.38 1.816 3.955 2.007 3.559.433 6.795-2.102 7.228-5.661 0 0 .038-.315.112-.924.067-.608.203-1.518.298-2.688.108-1.173.242-2.62.399-4.321.039-.89.276-1.651.417-2.542.148-.86.306-1.774.473-2.739.161-.955.352-1.952.501-2.979.228-1.082.466-2.214.714-3.395.255-1.174.509-2.385.741-3.631.212-1.244.636-2.539.958-3.857.359-1.32.688-2.671 1.019-4.052.359-1.381.853-2.793 1.286-4.228.483-1.434.825-2.901 1.35-4.384.529-1.471 1.07-2.975 1.623-4.512.27-.76.542-1.528.818-2.303.312-.766.627-1.54.944-2.321.628-1.545 1.267-3.119 1.917-4.719.769-1.566 1.467-3.165 2.195-4.773.372-.802.701-1.618 1.109-2.418.417-.794.838-1.595 1.261-2.4 3.165-6.487 7.126-12.947 11.414-19.294 1.12-1.564 2.177-3.169 3.339-4.717 1.161-1.537 2.33-3.086 3.506-4.643 1.205-1.526 2.526-2.976 3.773-4.475 1.193-1.541 2.546-2.956 3.867-4.396 1.319-1.441 2.602-2.915 4.054-4.23l2.102-2.039 1.02-1.045.255-.262.127-.131.064-.065c.564-.594-.699.738-.536.571l.665-.612c1.773-1.631 3.549-3.266 5.328-4.902l.66-.603.514-.379 1.021-.762 2.013-1.538c1.175-1.052 2.851-2.199 4.381-3.325.78-.556 1.521-1.159 2.276-1.745.757-.581 1.573-1.071 2.352-1.615 1.609-1.005 3.039-2.29 4.668-3.23 1.612-.969 3.138-2.071 4.7-3.109.879-.549 1.76-1.078 2.64-1.615-.356.402-.723.794-1.073 1.201-6.963 8.108-12.721 17.264-16.989 27.496-1.102 2.542-2.024 5.197-2.905 7.909-.436 1.349-.862 2.733-1.226 4.135l-.539 2.128-.593 2.532c-.119.501-.133.651-.18.911l-.126.728-.063.364-.016.091c.019-.07-.218.901-.129.553l-.046.26-.179 1.039c-.215 1.383-.468 2.783-.627 4.142-.155 1.359-.31 2.715-.464 4.07-.109 1.332-.203 2.663-.273 3.99-.539 10.551.541 20.321 2.424 29.315.931 4.502 2.161 8.794 3.468 12.918 1.374 4.106 2.874 8.03 4.527 11.751 3.304 7.442 7.142 14.092 11.156 19.902 4.047 5.805 8.305 10.759 12.452 14.823 4.14 4.071 8.189 7.233 11.72 9.567 1.717 1.199 3.426 2.119 4.844 2.927 1.47.839 2.902 1.515 3.929 2.015 1.924.676 2.991.995 2.991.995 1.593.478 3.341.491 5.042-.067 4.426-1.451 6.837-6.216 5.386-10.642l-.002-.006s-.347-1.059-1.074-2.965c-.228-.859-.384-1.825-.689-2.998-.321-1.235-.631-2.65-.991-4.213-1.362-6.28-2.76-15.146-3.514-25.52-.354-5.197-.589-10.747-.57-16.476.004-1.431.006-2.869.065-4.321-.003-1.442.086-2.898.139-4.353.141-2.905.345-5.825.625-8.699.059-.722.174-1.432.252-2.147.064-.716.144-1.425.251-2.126.162-1.417.435-2.798.624-4.174.249-1.353.475-2.716.787-4.006.24-1.321.576-2.566.891-3.799.185-.599.347-1.2.494-1.801l.535-1.706c.169-.571.396-1.072.579-1.611l.134-.399.032-.1c.102-.408-.123.503-.087.374l.03-.087.119-.35.239-.7c.076-.216.176-.544.198-.515.077-.102.148-.204.213-.307l.339-.693c.25-.469.439-.96.697-1.457.466-.995 1.037-1.999 1.568-3.052 2.231-4.166 4.925-8.504 7.746-12.474 2.829-3.991 5.805-7.594 8.699-10.747 2.913-3.144 5.735-5.836 8.652-8.18 2.917-2.327 6.008-4.362 9.505-5.968 3.478-1.599 7.346-2.771 11.213-3.49 3.865-.758 7.683-1.043 11.018-1.232 1.685-.123 3.186-.078 4.581-.149 1.367-.007 2.563-.005 3.564-.026 1.967.03 3.113-.019 3.113-.019l.778-.031c1.07-.049 2.149-.296 3.185-.761 3.155-1.415 5.054-4.466 5.167-7.703.819-.579 1.557-1.301 2.16-2.175l.424-.616s.651-.944 1.672-2.626c.55-.836 1.185-1.851 1.917-3.004.801-1.144 1.561-2.439 2.562-3.8 1.933-2.724 4.205-5.806 6.903-8.676 2.665-2.893 5.715-5.545 8.918-7.64 3.219-2.108 6.587-3.643 10.109-4.876 3.536-1.224 7.317-2.182 11.529-2.977 4.209-.774 8.844-1.378 13.728-1.652 4.861-.278 9.968-.252 14.683.074 1.174.11 2.327.161 3.418.295.558.046 1.073.147 1.604.185l.767.081c.122 0 .246-.006.373-.017-.014-.034.318.056.541.106l.719.17.359.085.09.021c.129.039-.763-.255-.363-.125l.102.026.409.099c.553.132 1.099.207 1.672.367l1.729.454c.587.196 1.181.378 1.788.54 1.212.389 2.445.767 3.691 1.266 1.258.422 2.533.955 3.811 1.464 1.266.572 2.581 1.075 3.867 1.692.65.283 1.294.592 1.934.919.648.314 1.31.595 1.953.929 2.583 1.292 5.164 2.671 7.699 4.097 1.26.729 2.541 1.429 3.761 2.198 1.261.722 2.48 1.485 3.694 2.243 4.862 3.03 9.437 6.18 13.65 9.244 8.385 6.156 15.15 12.054 19.743 16.548 1.132 1.136 2.166 2.151 3.041 3.08.831.882 1.566 1.528 2.172 2.178 1.228 1.63 1.94 2.487 1.94 2.487l.002.003c1.062 1.281 2.512 2.261 4.237 2.739 4.489 1.244 9.136-1.386 10.38-5.874 0 0 .297-1.073.748-3.063.123-1.136.312-2.708.383-4.399.067-1.629.197-3.565.095-5.657z" fill="#2ba52e"/><path d="m318.175 268.546-60.315 16.305c-3.527-15.905-8.413-28.641-14.237-40.93l55.098-19.448c6.677 12.292 12.41 25.127 17.335 38.253.725 1.933 1.428 3.875 2.119 5.82zm-53.062 99.967 73.876-7.585c-1.791-15.502-4.286-30.885-7.624-46.061l-67.403 11.547c1.154 13.944 1.495 28.005 1.151 42.099zm-8.47 81.059h85.769c.36-13.039.402-26.109.039-39.161h-80.217c-1.438 13.12-3.338 26.196-5.591 39.161z" fill="#af773f"/></svg>