<svg viewBox="0 0 64 64" xmlns="http://www.w3.org/2000/svg"><circle cx="29.5" cy="29.5" fill="#ffe5d2" r="21.5"/><circle cx="43" cy="43" fill="#d9be6f" r="16" stroke="#4c241d" stroke-linecap="round" stroke-linejoin="round" stroke-width="2"/><circle cx="42" cy="42" fill="#6b4f5b" r="7"/><g stroke="#4c241d" stroke-linecap="round" stroke-linejoin="round" stroke-width="2"><path d="m46.95 37.025a7 7 0 1 0 -9.9 9.9" fill="none"/><path d="m13.971 8.045 3.705-.99" fill="#bf7e68"/><path d="m13.929 3.309-1.001 3.746" fill="#bf7e68"/><path d="m47.877 47.835h9.538a0 0 0 0 1 0 0v5.058a3.657 3.657 0 0 1 -3.657 3.657h-2.224a3.657 3.657 0 0 1 -3.657-3.657v-5.058a0 0 0 0 1 0 0z" fill="#bf7e68" transform="matrix(.70710678 -.70710678 .70710678 .70710678 -21.486 52.513)"/><path d="m3.476 12.761 4.871-1.124-1.124 4.871" fill="none"/><path d="m9.714 13.508 37.727 37.727" fill="#bf7e68"/><path d="m14.214 9.008 37.727 37.727" fill="#bf7e68"/><path d="m7.724 7.022 41.965 41.965" fill="#bf7e68"/><path d="m9.676 4h4.324a0 0 0 0 1 0 0v12a0 0 0 0 1 0 0h-7a0 0 0 0 1 0 0v-9.324a2.676 2.676 0 0 1 2.676-2.676z" fill="#bf7e68" transform="matrix(.70710678 -.70710678 .70710678 .70710678 -3.996 10.354)"/><path d="m32 14 2.5-2.5" fill="none"/><path d="m29 13v-3" fill="none"/><path d="m32 17h4" fill="none"/><path d="m14.5 30.5-2.5 2.5" fill="none"/><path d="m13.5 27.5h-3" fill="none"/><path d="m17.5 30.5v4" fill="none"/></g><circle cx="54" cy="51" fill="#4c241d" r="1"/><circle cx="51.575" cy="53.381" fill="#4c241d" r="1"/></svg>